<svg xmlns="http://www.w3.org/2000/svg" viewBox="0 0 61.5 62"><path fill="#F9F3F6" d="M45.2 34.7H17.3v-11c0-1.1.9-2 2-2h23.8c1.1 0 2 .9 2 2v11zm0 0"/><path fill="#F6ECEE" d="M43.2 21.7h-6c1.1 0 2 .9 2 2v4.1c0 .9-.7 1.6-1.6 1.6H17.3v5.3h27.8v-11c.1-1.1-.8-2-1.9-2zm0 0"/><path fill="#F9F3F6" d="M50.9 44.8H11.6v-11c0-1.1.9-2 2-2h35.2c1.1 0 2 .9 2 2v11zm0 0"/><path fill="#F6ECEE" d="M48.9 31.8h-6c1.1 0 2 .9 2 2v4.8c0 1.1-.9 1.9-1.9 1.9H11.6v4.3h39.2v-11c.1-1.1-.8-2-1.9-2zm0 0"/><path fill="#F9F3F6" d="M57 56H5.5V45.1c0-1.1.9-2 2-2H55c1.1 0 2 .9 2 2V56zm0 0"/><path fill="#F6ECEE" d="M55 43.1h-6c1.1 0 2 .9 2 2v5.4c0 1.5-1.2 2.7-2.7 2.7H5.5V56H57V45.1c0-1.1-.9-2-2-2zm0 0"/><path fill="#E7C9D1" d="M35 5.2c-1.2 0-2.3.5-3.2 1.2-.3.3-.8.3-1.1 0-.8-.8-2-1.2-3.2-1.2-2.8 0-4.9 2.5-4.7 5.3.5 5.6 8.4 8.6 8.4 8.6s7.9-3.1 8.4-8.6c.3-2.8-1.8-5.2-4.6-5.3zm-1.3 9.2c-.8.6-1.7 1.1-2.3 1.5h-.1-.1c-.6-.3-1.5-.8-2.3-1.5-2.3-1.7-2.8-3.3-2.8-4.2 0-1.1.9-1.9 1.9-1.9 1.4 0 2.5 1.1 3 1.8.1.2.4.2.6 0 .5-.7 1.6-1.8 3-1.8 1.1 0 1.9.9 1.9 1.9 0 .9-.5 2.4-2.8 4.2zm0 0"/><path fill="#E0BEC7" d="M43.2 21.7H19.3c-1.1 0-2 .9-2 2v3.5c2.3 0 2.3-2.1 4.6-2.1s2.3 2.1 4.6 2.1 2.3-2.1 4.6-2.1 2.3 2.1 4.6 2.1 2.3-2.1 4.6-2.1 2.3 2.1 4.6 2.1v-3.5c.3-1.1-.6-2-1.7-2zm0 0"/><path fill="#DDB7C1" d="M43.2 21.7h-6c1.1 0 2 .9 2 2v1.7c.4-.2.8-.3 1.4-.3 2.3 0 2.3 2.1 4.6 2.1v-3.5c0-1.1-.9-2-2-2zm0 0"/><path fill="#F5EAEC" d="M48.9 31.8H13.6c-1.1 0-2 .9-2 2v3.5c2.5 0 2.5-2.1 4.9-2.1 2.5 0 2.5 2.1 4.9 2.1 2.5 0 2.5-2.1 4.9-2.1 2.5 0 2.5 2.1 4.9 2.1 2.5 0 2.5-2.1 4.9-2.1 2.5 0 2.5 2.1 4.9 2.1 2.5 0 2.5-2.1 4.9-2.1 2.5 0 2.5 2.1 4.9 2.1v-3.5c.1-1.1-.8-2-1.9-2zm0 0"/><path fill="#EED9DE" d="M48.9 31.8h-6c1.1 0 2 .9 2 2v1.6c.3-.1.7-.2 1.1-.2 2.5 0 2.5 2.1 4.9 2.1v-3.5c0-1.1-.9-2-2-2zm0 0"/><path fill="#DFBAC5" d="M55 43.1H7.5c-1.1 0-2 .9-2 2v3.5c2.6 0 2.6-2.1 5.1-2.1 2.6 0 2.6 2.1 5.2 2.1s2.6-2.1 5.2-2.1 2.6 2.1 5.2 2.1 2.6-2.1 5.2-2.1 2.6 2.1 5.2 2.1 2.6-2.1 5.2-2.1 2.6 2.1 5.2 2.1 2.6-2.1 5.2-2.1 2.6 2 5.1 2.1v-3.5c-.3-1.1-1.2-2-2.3-2zm0 0"/><path fill="#DCB2BE" d="M55 43.1h-6c1.1 0 2 .9 2 2v1.5c.3-.1.6-.1.9-.1 2.6 0 2.6 2 5.1 2.1v-3.5c0-1.1-.9-2-2-2zm0 0"/><path fill="#EED9DE" d="M58.9 59.9H3.6c-.6 0-1-.4-1-1v-2.3c0-.6.4-1 1-1h55.3c.6 0 1 .4 1 1v2.3c0 .5-.4 1-1 1zm0 0"/><path fill="#E9CFD6" d="M58.9 55.6h-5v4.3h5c.6 0 1-.4 1-1v-2.3c0-.6-.4-1-1-1zm0 0"/><path fill="#E1BFC7" d="M35 5.2c-1.2 0-2.3.5-3.2 1.2-.2.1-.3.2-.5.2v3.5c.1 0 .2 0 .3-.1.5-.7 1.6-1.8 3-1.8 1.1 0 1.9.9 1.9 1.9 0 1-.5 2.5-2.8 4.2-.8.6-1.7 1.1-2.3 1.5h-.1v3.3s7.9-3.1 8.4-8.6c.2-2.8-1.9-5.2-4.7-5.3zm0 0"/><path d="M58.9 54.7h-1.1V45c0-1.6-1.3-2.9-2.9-2.9h-3.3v-8.4c0-1.6-1.3-2.9-2.9-2.9H46v-7.3c0-1.6-1.3-2.9-2.9-2.9h-11v-1.1c1.9-.8 7.9-4 8.4-9.1.1-1.4-.4-3-1.5-4.2-1-1.2-2.5-1.8-4-1.8-1.4 0-2.7.5-3.7 1.4-1-.9-2.3-1.4-3.7-1.4-1.6 0-3 .6-4 1.8-1.2 1.2-1.7 2.8-1.6 4.4.5 5.2 6.5 8.3 8.4 9.1v1.1h-5.1c-.5 0-.9.4-.9.9s.4.9.9.9h17.8c.6 0 1.1.5 1.1 1.1v2.4c-.3-.1-.6-.4-.9-.6-.6-.6-1.4-1.3-2.9-1.3s-2.3.7-2.9 1.3c-.5.5-.9.8-1.7.8-.8 0-1.2-.3-1.7-.8-.6-.6-1.4-1.3-2.9-1.3s-2.3.7-2.9 1.3c-.5.5-.9.8-1.7.8-.8 0-1.2-.3-1.7-.8-.6-.6-1.4-1.3-2.9-1.3s-2.3.7-2.9 1.3c-.3.3-.6.5-.9.6v-2.4c0-.6.5-1.1 1.1-1.1h2c.5 0 .9-.4.9-.9s-.4-.9-.9-.9h-2c-1.6 0-2.9 1.3-2.9 2.9V31h-2.8c-1.6 0-2.9 1.3-2.9 2.9v8.4H7.5c-1.6 0-2.9 1.3-2.9 2.9v9.7h-1c-1 0-1.9.8-1.9 1.9v2.3c0 1 .8 1.9 1.9 1.9h55.3c1 0 1.9-.8 1.9-1.9v-2.3c0-1.2-.8-2.1-1.9-2.1zM23.7 10.4c-.1-1.1.3-2.2 1-3.1.7-.8 1.7-1.2 2.8-1.2 1 0 1.9.4 2.6 1 .6.6 1.6.6 2.2 0 .7-.6 1.6-1 2.6-1 1.1 0 2 .4 2.8 1.2.8.8 1.1 1.9 1 3.1-.4 4.4-6.1 7.2-7.5 7.8-1.4-.6-7.1-3.4-7.5-7.8zm-5.5 17.5c1-.2 1.5-.7 2-1.2s.9-.8 1.7-.8c.8 0 1.2.3 1.7.8.6.6 1.4 1.3 2.9 1.3s2.3-.7 2.9-1.3c.5-.5.9-.8 1.7-.8.8 0 1.2.3 1.7.8.6.6 1.4 1.3 2.9 1.3s2.3-.7 2.9-1.3c.5-.5.9-.8 1.7-.8.8 0 1.2.3 1.7.8.5.4 1.1 1 2 1.2V31H18.2v-3.1zm-5.7 5.9c0-.6.5-1.1 1.1-1.1h35.2c.6 0 1.1.5 1.1 1.1v2.5c-.4-.1-.7-.4-1-.7-.7-.6-1.5-1.2-3-1.2s-2.4.7-3 1.2c-.6.5-1 .8-1.9.8-.9 0-1.3-.3-1.9-.8-.7-.6-1.5-1.2-3-1.2s-2.4.7-3 1.2c-.6.5-1 .8-1.9.8-.9 0-1.3-.3-1.9-.8-.7-.6-1.5-1.2-3-1.2s-2.4.7-3 1.2c-.6.5-1 .8-1.9.8-.9 0-1.3-.3-1.9-.8-.7-.6-1.5-1.2-3-1.2s-2.4.7-3 1.2c-.4.3-.6.5-1 .7v-2.5zM6.4 45.1c0-.6.5-1.1 1.1-1.1h34.8c.5 0 .9-.4.9-.9s-.4-.9-.9-.9H12.5V38c1-.2 1.6-.7 2.1-1.2.6-.5 1-.8 1.9-.8.9 0 1.3.3 1.9.8.7.6 1.5 1.2 3 1.2s2.4-.7 3-1.2c.6-.5 1-.8 1.9-.8.9 0 1.3.3 1.9.8.7.6 1.5 1.2 3 1.2s2.4-.7 3-1.2c.6-.5 1-.8 1.9-.8.9 0 1.3.3 1.9.8.7.6 1.5 1.2 3 1.2s2.4-.7 3-1.2c.6-.5 1-.8 1.9-.8.9 0 1.3.3 1.9.8.5.4 1.1 1 2.1 1.2v4.2h-3.7c-.5 0-.9.4-.9.9s.4.9.9.9H55c.6 0 1.1.5 1.1 1.1v2.5c-.4-.1-.7-.4-1.1-.7-.7-.5-1.5-1.2-3.1-1.2s-2.4.7-3.1 1.2c-.6.5-1.1.8-2 .8-1 0-1.4-.4-2-.8-.7-.5-1.5-1.2-3.1-1.2s-2.4.7-3.1 1.2c-.6.5-1.1.8-2 .8-1 0-1.4-.4-2-.8-.7-.5-1.5-1.2-3.1-1.2s-2.4.7-3.1 1.2c-.6.5-1.1.8-2 .8-1 0-1.4-.4-2-.8-.7-.5-1.5-1.2-3.1-1.2s-2.4.7-3.1 1.2c-.6.5-1.1.8-2 .8-1 0-1.4-.4-2-.8-.7-.5-1.5-1.2-3.1-1.2s-2.4.7-3.1 1.2c-.4.3-.7.6-1.2.7v-2.5zm0 4.2c1-.2 1.7-.7 2.2-1.2.6-.5 1.1-.8 2-.8 1 0 1.4.4 2 .8.7.5 1.5 1.2 3.1 1.2s2.4-.7 3.1-1.2c.6-.5 1.1-.8 2-.8 1 0 1.4.4 2 .8.7.5 1.5 1.2 3.1 1.2s2.4-.7 3.1-1.2c.6-.5 1.1-.8 2-.8 1 0 1.4.4 2 .8.7.5 1.5 1.2 3.1 1.2s2.4-.7 3.1-1.2c.6-.5 1.1-.8 2-.8 1 0 1.4.4 2 .8.7.5 1.5 1.2 3.1 1.2s2.4-.7 3.1-1.2c.6-.5 1.1-.8 2-.8 1 0 1.4.4 2 .8.5.4 1.2.9 2.2 1.1v5.4H6.4v-5.3zm52.7 9.6c0 .1-.1.1-.1.1H3.6c-.1 0-.1-.1-.1-.1v-2.3c0-.1.1-.1.1-.1h55.3c.1 0 .1.1.1.1v2.3zm0 0"/><path d="M34.6 7.4c-1.5 0-2.6.9-3.3 1.7-.7-.8-1.8-1.7-3.3-1.7-1.5 0-2.8 1.2-2.8 2.8 0 1.2.5 3 3.1 4.9.9.7 1.9 1.2 2.5 1.5.1.1.3.1.5.1s.3 0 .5-.1c.6-.3 1.6-.8 2.5-1.5 2.6-2 3.1-3.8 3.1-4.9 0-1.6-1.3-2.8-2.8-2.8zm-1.4 6.3c-.7.5-1.4.9-1.9 1.2-.5-.3-1.2-.7-1.9-1.2-1.6-1.2-2.5-2.5-2.5-3.6 0-.6.5-1.1 1.1-1.1 1.1 0 1.9.9 2.4 1.5.2.3.6.5 1 .5s.7-.2 1-.5c.4-.5 1.3-1.5 2.4-1.5.6 0 1.1.5 1.1 1.1-.3 1.1-1.1 2.4-2.7 3.6zm0 0"/></svg>