<svg height="512" width="512" xmlns="http://www.w3.org/2000/svg"><path clip-rule="evenodd" d="M375.521 151.388h-239.07c67.917 0 123.333 53.489 126.338 120.634a33.595 33.595 0 0012.415 2.351c18.652 0 33.93-15.27 33.93-33.912v-8.046c0-16.007 13.096-29.096 29.111-29.096 15.987 0 29.111 13.089 29.111 29.096v41.562c0 18.642 15.25 33.912 33.902 33.912 18.68 0 33.93-15.271 33.93-33.912 0-34.224 7.285-46.151 56.38-46.52-19.444-44.763-64.089-76.069-116.047-76.069z" fill="#ffbdbc" fill-rule="evenodd"/><path clip-rule="evenodd" d="M309.135 240.462c0 18.642-15.278 33.912-33.93 33.912-4.365 0-8.56-.822-12.415-2.351.085 1.898.142 3.825.142 5.751 0 43.942-27.552 81.424-66.329 96.156h239.069C474.448 359.197 502 321.715 502 277.774c0-17.877-3.713-34.904-10.431-50.316-49.095.368-56.38 12.296-56.38 46.52 0 18.642-15.25 33.912-33.93 33.912-18.652 0-33.902-15.271-33.902-33.912v-41.562c0-16.007-13.124-29.096-29.111-29.096-16.015 0-29.111 13.089-29.111 29.096z" fill="#ffea60" fill-rule="evenodd"/><path clip-rule="evenodd" d="M262.789 272.022c-3.005-67.145-58.421-120.634-126.338-120.634C66.607 151.388 10 207.966 10 277.774c0 12.947 10.601 23.543 23.555 23.543s23.555-10.596 23.555-23.543c0 43.942 27.552 81.424 66.329 96.156H196.6c38.777-14.732 66.329-52.214 66.329-96.156.002-1.927-.055-3.853-.14-5.752z" fill="#fff2a0" fill-rule="evenodd"/><path clip-rule="evenodd" d="M196.601 373.93H10c5.442 15.525 12.359 45.755 26.39 45.755h439.192c14.031 0 20.948-30.229 26.418-45.755h-66.329z" fill="#faf7f5" fill-rule="evenodd"/><path clip-rule="evenodd" d="M405.936 419.684h-299.9c7.653 17.254 8.334 41.817 28.034 41.817h243.86c19.672 0 20.381-24.563 28.006-41.817z" fill="#ebddd9" fill-rule="evenodd"/><path clip-rule="evenodd" d="M285.551 85.688c-21.741 0-39.372 17.622-39.372 39.352 0 10.114 3.827 19.35 10.148 26.348h58.449c6.293-6.998 10.119-16.234 10.119-26.348 0-21.73-17.631-39.352-39.344-39.352z" fill="#ff7b79" fill-rule="evenodd"/><path d="M502 363.93h-29.955a113.443 113.443 0 0019.515-21.376c13.372-19.036 20.44-41.437 20.44-64.78 0-19.042-3.931-37.182-11.016-53.661a9.955 9.955 0 00-.609-1.389c-21.214-47.859-69.192-81.335-124.854-81.335h-43.422a49.296 49.296 0 002.797-16.349c0-23.328-16.272-42.913-38.056-48.033 2.298-9.371 7.302-13.607 15.241-17.549 4.946-2.456 6.966-8.458 4.51-13.404-2.456-4.945-8.456-6.966-13.404-4.51-15.503 7.698-23.776 18.413-26.636 34.981-22.939 4.244-40.371 24.376-40.371 48.515a49.23 49.23 0 002.8 16.349H136.451C61.212 141.389 0 202.571 0 277.774c0 18.496 15.053 33.543 33.556 33.543a33.37 33.37 0 0017.247-4.778c3.366 12.82 8.999 24.983 16.749 36.016a113.443 113.443 0 0019.515 21.376H10A9.999 9.999 0 00.564 377.24c.824 2.351 1.717 5.164 2.663 8.144 6.268 19.738 14.066 44.303 33.163 44.303h62.779c.778 2.29 1.518 4.692 2.277 7.173 4.475 14.62 10.604 34.644 32.625 34.644H377.93c22.019 0 28.147-20.05 32.623-34.69.753-2.464 1.487-4.85 2.258-7.126h62.771c19.066 0 26.875-24.51 33.148-44.203.959-3.012 1.865-5.855 2.701-8.229A10.002 10.002 0 00502 363.93zm-68.26 0H232.975a113.481 113.481 0 0019.516-21.376c12.12-17.254 19.042-37.276 20.235-58.256.823.046 1.649.076 2.479.076 24.224 0 43.931-19.699 43.931-43.913v-8.046c0-10.529 8.573-19.096 19.111-19.096 10.537 0 19.11 8.566 19.11 19.096v41.562c0 24.213 19.694 43.912 43.902 43.912 24.223 0 43.93-19.699 43.93-43.912 0-16.252 1.834-24.268 6.542-28.59 5.085-4.669 15.699-7.174 33.116-7.785 4.625 12.527 7.154 26.059 7.154 40.171-.001 37.732-23.346 72.121-58.261 86.157zM256.178 125.04c0-16.185 13.177-29.352 29.373-29.352 16.181 0 29.344 13.167 29.344 29.352a29.33 29.33 0 01-4.978 16.349h-48.745a29.233 29.233 0 01-4.994-16.349zm119.343 36.349c42.406 0 79.586 22.763 99.959 56.7-18.109 1.427-29.395 5.332-37.275 12.566-10.803 9.918-13.017 24.492-13.017 43.323 0 13.186-10.734 23.912-23.93 23.912-13.18 0-23.902-10.727-23.902-23.912v-41.562c0-21.558-17.545-39.096-39.11-39.096-21.566 0-39.111 17.538-39.111 39.096v8.046c0 13.186-10.735 23.913-23.931 23.913-.997 0-1.978-.082-2.95-.201-4.329-43.49-29.186-81.031-64.723-102.785zM67.111 277.774c0-38.228 31.105-69.327 69.34-69.327 38.25 0 69.368 31.1 69.368 69.327 0 25.245-20.552 45.784-45.813 45.784-25.262 0-45.813-20.539-45.813-45.784 0-12.888 9.36-22.241 22.258-22.241 12.273 0 22.258 9.978 22.258 22.241 0 5.522 4.478 10 10 10s10-4.478 10-10c0-23.292-18.957-42.241-42.258-42.241-24.091 0-42.258 18.16-42.258 42.241 0 36.273 29.523 65.784 65.813 65.784 36.289 0 65.813-29.511 65.813-65.784 0-49.255-40.091-89.327-89.368-89.327-49.262 0-89.34 40.072-89.34 89.327 0 7.468-6.081 13.543-13.556 13.543S20 285.241 20 277.774c0-64.175 52.24-116.385 116.451-116.385 62.334 0 113.386 49.18 116.341 110.746.001.107.008.213.012.319.08 1.764.127 3.536.127 5.32 0 37.73-23.345 72.121-58.26 86.156h-69.299c-34.915-14.035-58.261-48.425-58.261-86.156zm414.671 123.15c-3.762 7.808-6.249 8.758-6.2 8.761H300.886c-5.522 0-10 4.478-10 10s4.478 10 10 10h90.936c-.13.426-.265.856-.395 1.279-4.788 15.661-7.274 20.537-13.497 20.537H134.07c-6.23 0-8.717-4.867-13.501-20.497-.134-.437-.273-.88-.407-1.319h90.924c5.522 0 10-4.478 10-10s-4.478-10-10-10l-104.974.007c-.124-.001-.248-.004-.373 0l-69.257.005c-.023-.007-2.523-.938-6.307-8.809-2.42-5.035-4.525-11.12-6.416-16.958h172.768c.026 0 .051.003.077.003.022 0 .043-.003.065-.003h238.927c.026 0 .051.003.077.003.022 0 .043-.003.065-.003h52.487c-1.899 5.85-4.014 11.952-6.443 16.994z"/><path d="M255.985 409.685c-5.522 0-10 4.478-10 10s4.478 10 10 10h.058c5.522 0 9.972-4.478 9.972-10s-4.507-10-10.03-10z"/></svg>