<svg height="512" width="512" xmlns="http://www.w3.org/2000/svg"><path d="M347.072 371.716h65.415c10.229 0 18.552-8.326 18.552-18.561v-95.611c0-10.234-8.322-18.561-18.552-18.561h-65.415c-10.23 0-18.553 8.326-18.553 18.561v95.611c.001 10.235 8.323 18.561 18.553 18.561zm1.448-112.732h62.52v92.732h-62.52zM99.513 371.716h65.416c10.23 0 18.552-8.326 18.552-18.561v-95.611c0-10.234-8.322-18.561-18.552-18.561H99.513c-10.23 0-18.552 8.326-18.552 18.561v95.611c-.001 10.235 8.322 18.561 18.552 18.561zm1.447-112.732h62.52v92.732h-62.52zM338.52 411.259h82.52c5.522 0 10-4.477 10-10s-4.478-10-10-10h-82.52c-5.522 0-10 4.477-10 10s4.477 10 10 10zM90.96 411.259h82.52c5.523 0 10-4.477 10-10s-4.477-10-10-10H90.96c-5.523 0-10 4.477-10 10s4.477 10 10 10z"/><path d="M476.261 207.196c18.053 0 32.739-14.697 32.739-32.762v-33.59c0-18.049-14.687-32.733-32.739-32.733h-67.423V80.944h12.824c22.3 0 40.442-18.156 40.442-40.472S443.962 0 421.662 0H100.334c-22.3 0-40.442 18.156-40.442 40.472s18.143 40.472 40.442 40.472h2.828v27.167H35.74C17.687 108.111 3 122.795 3 140.845v33.59c0 18.065 14.687 32.762 32.74 32.762h3.734v235.482H27.329C13.914 442.678 3 453.598 3 467.021v20.636C3 501.08 13.914 512 27.329 512h263.673c5.522 0 10-4.477 10-10s-4.478-10-10-10H27.329c-2.347 0-4.329-1.989-4.329-4.343v-20.636c0-2.354 1.982-4.343 4.329-4.343h457.342c2.347 0 4.329 1.989 4.329 4.343v20.636c0 2.354-1.982 4.343-4.329 4.343H380.742c-5.522 0-10 4.477-10 10s4.478 10 10 10h103.929C498.086 512 509 501.08 509 487.657v-20.636c0-13.423-10.914-24.343-24.329-24.343h-12.145V207.196zm-48.004-79.085v59.085h-40.771v-59.085zm-248.798-20V80.944h153.082v27.167zm127.284 20v59.085H266v-59.085zm-60.743 0v59.085h-40.743v-59.085zm-101.514 0h40.771v59.085h-40.771zm-21.324-20V80.944h36.297v27.167zm203.581 20h40.743v59.085h-40.743zm25.798-20V80.944h36.297v27.167zM100.334 60.944c-11.272 0-20.442-9.184-20.442-20.472S89.062 20 100.334 20h321.328c11.271 0 20.442 9.184 20.442 20.472 0 11.289-9.171 20.472-20.442 20.472zm-16.591 67.167h40.743v59.085H83.743zM35.74 187.196c-7.025 0-12.74-5.725-12.74-12.762v-33.59c0-7.021 5.715-12.733 12.74-12.733h28.003v59.085zm251.293 255.482h-62.066v-73.91h62.066zm0-93.91h-62.066v-9.786c0-13.132 10.669-23.816 23.784-23.816h14.499c13.114 0 23.784 10.684 23.784 23.816v9.786zm165.493 93.91H307.033V338.982c0-24.161-19.642-43.816-43.784-43.816H248.75c-24.143 0-43.784 19.656-43.784 43.816v103.696H59.474V207.196h393.052zm-4.269-255.482v-59.085h28.004c7.024 0 12.739 5.712 12.739 12.733v33.59c0 7.037-5.715 12.762-12.739 12.762z"/><path d="M335.886 492c-5.522 0-10 4.477-10 10s4.478 10 10 10h.028c5.522 0 9.986-4.477 9.986-10s-4.492-10-10.014-10z"/></svg>