<svg height="512" width="512" xmlns="http://www.w3.org/2000/svg"><path d="M510.161 385.078a10.001 10.001 0 00-8.161-4.221h-35.915c9.162-17.826 15.328-40.158 11.562-58.888a10.002 10.002 0 00-7.704-7.807c-7.477-1.605-15.815-1.555-24.347-.286l-32.13-147.254c-5.335-24.467-19.012-37.599-29.546-44.307-13.24-8.432-29.616-11.708-44.934-8.982-13.206 2.347-24.707 8.956-32.384 18.609a47.683 47.683 0 00-2.533 3.498c-10.985-16.613-27.892-27.099-47.542-28.165-.137-.007-.273.002-.41 0-1.107-23.537-18.494-42.873-41.124-46.994-2.887-16.961-11.299-27.903-27.103-35.739-4.95-2.454-10.949-.432-13.402 4.517-2.454 4.947-.432 10.947 4.516 13.401 8.221 4.076 13.376 8.47 15.711 18.286-22.268 5.13-38.928 25.107-38.928 48.916 0 1.026.042 2.047.103 3.064-9.817.996-19.442 4.259-27.813 9.589-10.534 6.708-24.211 19.84-29.545 44.304l-46.78 214.238H10a9.999 9.999 0 00-9.438 13.306c.825 2.354 1.718 5.169 2.664 8.15 6.267 19.753 14.066 44.337 33.165 44.337h62.777c.778 2.294 1.518 4.698 2.278 7.183 4.474 14.631 10.602 34.669 32.625 34.669h243.86c22.021 0 28.149-20.064 32.624-34.716.754-2.467 1.488-4.856 2.259-7.136h62.769c19.069 0 26.876-24.528 33.149-44.237.959-3.014 1.865-5.859 2.702-8.234a10.006 10.006 0 00-1.273-9.101zm-51.391-52.162c.306 15.531-7.036 34.577-15.798 47.94h-28.023c1.271-10.949-.524-22.065-5.198-32.207 13.862-9.069 33.586-16.182 49.019-15.733zm-125.931 47.941c-11.276-18.658-19.091-48.649-15.079-70.089 24.134 1.821 55.423 20.616 68.857 38.043 9.277 12.05 9.388 24.329 8.074 32.046zM205.984 79.455c16.649 0 30.195 13.551 30.195 30.207 0 .68-.026 1.351-.068 2.015-11.33 4.704-21.029 12.906-28.194 23.743a47.39 47.39 0 00-2.52-3.479c-7.069-8.888-17.383-15.186-29.28-17.962a30.205 30.205 0 01-.328-4.318c0-16.655 13.545-30.206 30.195-30.206zm-87.91 91.429c6.478-29.707 30.78-41.53 51.438-37.86 14.621 2.6 29.122 13.513 25.969 36.348-.754 5.468 3.063 10.513 8.53 11.272 5.463.754 10.515-3.055 11.28-8.521 2.415-17.272 12.192-37.447 31.875-43.282.345-.074.685-.166 1.018-.275a40.602 40.602 0 017.801-1.287c25.624 1.707 37.952 25.167 40.724 44.854.77 5.464 5.819 9.27 11.283 8.51 5.465-.762 9.28-5.806 8.525-11.271-3.152-22.835 11.348-33.748 25.969-36.348 20.66-3.667 44.961 8.152 51.439 37.861l3.302 15.135a36.214 36.214 0 00-3.878-.216c-19.909 0-36.106 16.201-36.106 36.115v9.13c0 11.263-9.158 20.425-20.416 20.425-11.257 0-20.415-9.162-20.415-20.425 0-19.914-16.197-36.115-36.106-36.115S244.2 211.135 244.2 231.049v83.646c0 11.263-9.158 20.425-20.416 20.425-11.272 0-20.443-9.162-20.443-20.425v-65.783c0-19.913-16.185-36.114-36.078-36.114-19.909 0-36.106 16.201-36.106 36.114v18.062c0 11.263-9.171 20.425-20.444 20.425-6.473 0-12.459-3.074-16.294-8.186zM89.572 301.411a40.239 40.239 0 0021.141 5.989c22.301 0 40.444-18.135 40.444-40.425v-18.062c0-8.886 7.225-16.114 16.106-16.114 8.866 0 16.078 7.229 16.078 16.114v65.783c0 22.29 18.143 40.425 40.443 40.425 22.285 0 40.416-18.135 40.416-40.425V231.05c0-8.886 7.225-16.115 16.106-16.115s16.106 7.229 16.106 16.115c0 22.29 18.13 40.425 40.415 40.425s40.416-18.135 40.416-40.425v-9.13c0-8.886 7.225-16.115 16.106-16.115 3.141 0 6.169.922 8.767 2.62l24.058 110.26c-9.97 3.409-19.512 8.083-27.537 13.346-19.87-22.129-59.222-43.55-89.33-41.227a10.001 10.001 0 00-8.685 6.692c-8.458 24.375-2.191 58.42 9.582 83.361H72.223zm392.212 116.461c-3.763 7.818-6.252 8.774-6.203 8.777H300.886c-5.523 0-10 4.478-10 10s4.477 10 10 10h90.939c-.132.431-.268.865-.399 1.294-4.789 15.677-7.275 20.558-13.497 20.558H134.07c-6.229 0-8.715-4.872-13.5-20.518-.135-.442-.275-.89-.412-1.334h90.927c5.523 0 10-4.478 10-10s-4.477-10-10-10l-104.994.007c-.114-.001-.228-.003-.343 0l-69.265.005c-.024-.007-2.527-.941-6.312-8.824-2.421-5.044-4.527-11.136-6.417-16.98h36.021l.036.002.045-.002h342.465c.023 0 .046.003.068.003l.076-.003h45.698l.025.001.017-.001h40.02c-1.896 5.856-4.011 11.967-6.441 17.015z"/><path d="M255.986 426.65c-5.523 0-10 4.478-10 10s4.477 10 10 10h.057c5.523 0 9.972-4.478 9.972-10s-4.506-10-10.029-10z"/></svg>